<?xml version="1.0" encoding="utf-8"?>
<!-- Generator: Adobe Illustrator 16.0.0, SVG Export Plug-In . SVG Version: 6.00 Build 0)  -->
<!DOCTYPE svg PUBLIC "-//W3C//DTD SVG 1.1//EN" "http://www.w3.org/Graphics/SVG/1.1/DTD/svg11.dtd">
<svg version="1.1" id="Capa_1" xmlns="http://www.w3.org/2000/svg" xmlns:xlink="http://www.w3.org/1999/xlink" x="0px" y="0px"
	 width="350px" height="68px" viewBox="0 0 350 68" enable-background="new 0 0 350 68" xml:space="preserve">
<g>
	<linearGradient id="SVGID_1_" gradientUnits="userSpaceOnUse" x1="23.7061" y1="1.5645" x2="23.7061" y2="42.7847">
		<stop  offset="0" style="stop-color:#C8E7FA"/>
		<stop  offset="0.0946" style="stop-color:#B3DCF5"/>
		<stop  offset="0.5407" style="stop-color:#53ABDD"/>
		<stop  offset="0.8521" style="stop-color:#178CCE"/>
		<stop  offset="1" style="stop-color:#0080C8"/>
	</linearGradient>
	<path fill="url(#SVGID_1_)" d="M0,42.784l14.664-41.22h18.14l14.608,41.22H30.505l-1.654-6.014H18.559l-1.653,6.014H0z
		 M20.844,26.462h5.722l-2.832-10.479L20.844,26.462z"/>
	<linearGradient id="SVGID_2_" gradientUnits="userSpaceOnUse" x1="73.7246" y1="1.5645" x2="73.7246" y2="42.7847">
		<stop  offset="0" style="stop-color:#C8E7FA"/>
		<stop  offset="0.0946" style="stop-color:#B3DCF5"/>
		<stop  offset="0.5407" style="stop-color:#53ABDD"/>
		<stop  offset="0.8521" style="stop-color:#178CCE"/>
		<stop  offset="1" style="stop-color:#0080C8"/>
	</linearGradient>
	<path fill="url(#SVGID_2_)" d="M79.913,42.784H67.55l-6.24-21.44l-1.897,21.44H43.396l5.781-41.22h18.126l6.429,23.486l6.41-23.486
		h18.146l5.765,41.22H88.035l-1.884-21.44L79.913,42.784z"/>
	<linearGradient id="SVGID_3_" gradientUnits="userSpaceOnUse" x1="123.7588" y1="1.5645" x2="123.7588" y2="42.7847">
		<stop  offset="0" style="stop-color:#C8E7FA"/>
		<stop  offset="0.0946" style="stop-color:#B3DCF5"/>
		<stop  offset="0.5407" style="stop-color:#53ABDD"/>
		<stop  offset="0.8521" style="stop-color:#178CCE"/>
		<stop  offset="1" style="stop-color:#0080C8"/>
	</linearGradient>
	<path fill="url(#SVGID_3_)" d="M100.052,42.784l14.665-41.22h18.14l14.609,41.22H130.56l-1.656-6.014h-10.292l-1.656,6.014H100.052
		z M120.896,26.462h5.722l-2.833-10.479L120.896,26.462z"/>
	<linearGradient id="SVGID_4_" gradientUnits="userSpaceOnUse" x1="163.2378" y1="1.5645" x2="163.2378" y2="42.7847">
		<stop  offset="0" style="stop-color:#C8E7FA"/>
		<stop  offset="0.0946" style="stop-color:#B3DCF5"/>
		<stop  offset="0.5407" style="stop-color:#53ABDD"/>
		<stop  offset="0.8521" style="stop-color:#178CCE"/>
		<stop  offset="1" style="stop-color:#0080C8"/>
	</linearGradient>
	<path fill="url(#SVGID_4_)" d="M142.212,42.784l18.144-29.275h-15.252V1.564h39.161L166.538,30.83h16.07v11.954H142.212z"/>
	<linearGradient id="SVGID_5_" gradientUnits="userSpaceOnUse" x1="205.1914" y1="0.3271" x2="205.1914" y2="44.0181">
		<stop  offset="0" style="stop-color:#C8E7FA"/>
		<stop  offset="0.0946" style="stop-color:#B3DCF5"/>
		<stop  offset="0.5407" style="stop-color:#53ABDD"/>
		<stop  offset="0.8521" style="stop-color:#178CCE"/>
		<stop  offset="1" style="stop-color:#0080C8"/>
	</linearGradient>
	<path fill="url(#SVGID_5_)" d="M205.219,44.018c-3.593,0-6.872-0.538-9.84-1.614c-2.967-1.074-5.504-2.604-7.614-4.6
		c-2.104-1.993-3.707-4.321-4.805-6.986c-1.099-2.665-1.646-5.547-1.646-8.653c0-3.105,0.547-5.993,1.646-8.659
		c1.098-2.669,2.69-4.993,4.792-6.977c2.1-1.978,4.625-3.507,7.576-4.585c2.954-1.078,6.249-1.616,9.891-1.616
		c3.644,0,6.935,0.538,9.879,1.616c2.94,1.078,5.452,2.604,7.54,4.567c2.082,1.963,3.675,4.287,4.78,6.97
		c1.099,2.687,1.65,5.578,1.65,8.684c0,3.106-0.552,5.997-1.65,8.676c-1.105,2.677-2.7,5.009-4.796,6.984
		c-2.093,1.98-4.618,3.505-7.568,4.579C212.103,43.479,208.823,44.018,205.219,44.018z M205.219,30.83
		c2.35,0,4.281-0.791,5.796-2.369c1.511-1.581,2.27-3.684,2.27-6.297c0-2.624-0.753-4.729-2.257-6.296
		c-1.505-1.575-3.442-2.359-5.809-2.359c-1.569,0-2.973,0.361-4.201,1.076c-1.234,0.726-2.195,1.735-2.884,3.045
		c-0.69,1.308-1.036,2.817-1.036,4.534c0,1.708,0.346,3.218,1.036,4.533c0.688,1.322,1.649,2.339,2.884,3.061
		C202.246,30.471,203.649,30.83,205.219,30.83z"/>
	<linearGradient id="SVGID_6_" gradientUnits="userSpaceOnUse" x1="251.2686" y1="1.5645" x2="251.2686" y2="42.7847">
		<stop  offset="0" style="stop-color:#C8E7FA"/>
		<stop  offset="0.0946" style="stop-color:#B3DCF5"/>
		<stop  offset="0.5407" style="stop-color:#53ABDD"/>
		<stop  offset="0.8521" style="stop-color:#178CCE"/>
		<stop  offset="1" style="stop-color:#0080C8"/>
	</linearGradient>
	<path fill="url(#SVGID_6_)" d="M230.245,42.784V1.564h15.483l10.898,19.361V1.564h15.665v41.22h-15.249l-11.129-19.789v19.789
		H230.245z"/>
	<linearGradient id="SVGID_7_" gradientUnits="userSpaceOnUse" x1="294.8789" y1="1.5645" x2="294.8789" y2="42.7847">
		<stop  offset="0" style="stop-color:#C8E7FA"/>
		<stop  offset="0.0946" style="stop-color:#B3DCF5"/>
		<stop  offset="0.5407" style="stop-color:#53ABDD"/>
		<stop  offset="0.8521" style="stop-color:#178CCE"/>
		<stop  offset="1" style="stop-color:#0080C8"/>
	</linearGradient>
	<path fill="url(#SVGID_7_)" d="M271.171,42.784l14.663-41.22h18.143l14.609,41.22h-16.91l-1.652-6.014h-10.295l-1.648,6.014
		H271.171z M292.018,26.462h5.719l-2.83-10.479L292.018,26.462z"/>
	<linearGradient id="SVGID_8_" gradientUnits="userSpaceOnUse" x1="332.0049" y1="0.3271" x2="332.0049" y2="44.0181">
		<stop  offset="0" style="stop-color:#C8E7FA"/>
		<stop  offset="0.0946" style="stop-color:#B3DCF5"/>
		<stop  offset="0.5407" style="stop-color:#53ABDD"/>
		<stop  offset="0.8521" style="stop-color:#178CCE"/>
		<stop  offset="1" style="stop-color:#0080C8"/>
	</linearGradient>
	<path fill="url(#SVGID_8_)" d="M348.251,4.455l-4.772,9.054c-1.561-0.831-2.9-1.455-4.021-1.858
		c-1.112-0.413-2.301-0.618-3.568-0.618c-2.55,0-3.824,0.812-3.824,2.421c0,0.565,0.158,1.03,0.484,1.401
		c0.317,0.365,0.742,0.658,1.269,0.874c0.528,0.221,1.309,0.447,2.344,0.692c1.034,0.245,1.591,0.376,1.666,0.396
		c2.476,0.651,4.593,1.458,6.35,2.416c1.758,0.958,3.146,2.246,4.153,3.866c1.011,1.622,1.514,3.646,1.514,6.083
		c0,2.451-0.475,4.612-1.437,6.478c-0.959,1.872-2.295,3.427-4.008,4.668c-1.715,1.243-3.68,2.163-5.901,2.776
		c-2.222,0.607-4.575,0.914-7.08,0.914c-1.168,0-2.322-0.082-3.465-0.241c-1.14-0.155-2.434-0.468-3.887-0.931
		c-1.456-0.469-3-1.141-4.646-2.022c-1.643-0.879-3.396-2.036-5.257-3.465l6.242-9.187c1.925,1.537,3.689,2.705,5.282,3.512
		c1.595,0.804,3.271,1.204,5.022,1.204c2.312,0,3.468-0.785,3.468-2.356c0-1.057-0.468-1.822-1.4-2.303
		c-0.938-0.48-2.294-0.949-4.076-1.404c-2.245-0.613-4.214-1.312-5.919-2.094c-1.702-0.777-3.188-1.996-4.473-3.644
		c-1.278-1.65-1.916-3.784-1.916-6.4c0-2.76,0.667-5.224,2.005-7.403c1.337-2.174,3.284-3.873,5.838-5.107
		c2.551-1.232,5.578-1.849,9.063-1.849c1.715,0,3.468,0.153,5.252,0.451c1.779,0.307,3.493,0.759,5.137,1.366
		C345.33,2.752,346.852,3.523,348.251,4.455z"/>
	<g>
		<linearGradient id="SVGID_9_" gradientUnits="userSpaceOnUse" x1="123.6606" y1="1.5645" x2="123.6606" y2="22.5781">
			<stop  offset="0" style="stop-color:#009EE2"/>
			<stop  offset="0.1456" style="stop-color:#0886CE"/>
			<stop  offset="0.3812" style="stop-color:#1265B3"/>
			<stop  offset="0.6077" style="stop-color:#1A4E9F"/>
			<stop  offset="0.8191" style="stop-color:#1E4093"/>
			<stop  offset="1" style="stop-color:#203B8F"/>
		</linearGradient>
		<path fill="url(#SVGID_9_)" d="M114.866,1.564l-7.477,21.014c4.931-0.296,9.918-0.563,14.949-0.796l1.6-5.8l1.527,5.653
			c4.782-0.206,9.605-0.383,14.467-0.531l-6.925-19.54H114.866z"/>
		<linearGradient id="SVGID_10_" gradientUnits="userSpaceOnUse" x1="22.7476" y1="1.5645" x2="22.7476" y2="34.96">
			<stop  offset="0" style="stop-color:#009EE2"/>
			<stop  offset="0.1456" style="stop-color:#0886CE"/>
			<stop  offset="0.3812" style="stop-color:#1265B3"/>
			<stop  offset="0.6077" style="stop-color:#1A4E9F"/>
			<stop  offset="0.8191" style="stop-color:#1E4093"/>
			<stop  offset="1" style="stop-color:#203B8F"/>
		</linearGradient>
		<path fill="url(#SVGID_10_)" d="M14.815,1.564L2.933,34.96c12.418-2.354,25.67-4.464,39.63-6.292L32.958,1.564H14.815z
			 M20.997,26.462l2.888-10.479l2.833,10.479H20.997z"/>
		<linearGradient id="SVGID_11_" gradientUnits="userSpaceOnUse" x1="164.8354" y1="1.5645" x2="164.8354" y2="20.7285">
			<stop  offset="0" style="stop-color:#009EE2"/>
			<stop  offset="0.1456" style="stop-color:#0886CE"/>
			<stop  offset="0.3812" style="stop-color:#1265B3"/>
			<stop  offset="0.6077" style="stop-color:#1A4E9F"/>
			<stop  offset="0.8191" style="stop-color:#1E4093"/>
			<stop  offset="1" style="stop-color:#203B8F"/>
		</linearGradient>
		<path fill="url(#SVGID_11_)" d="M145.255,1.564v11.944h15.255l-4.474,7.22c5.578-0.089,11.203-0.143,16.865-0.152l11.516-19.012
			H145.255z"/>
		<linearGradient id="SVGID_12_" gradientUnits="userSpaceOnUse" x1="73.5054" y1="1.5645" x2="73.5054" y2="28.2822">
			<stop  offset="0" style="stop-color:#009EE2"/>
			<stop  offset="0.1456" style="stop-color:#0886CE"/>
			<stop  offset="0.3812" style="stop-color:#1265B3"/>
			<stop  offset="0.6077" style="stop-color:#1A4E9F"/>
			<stop  offset="0.8191" style="stop-color:#1E4093"/>
			<stop  offset="1" style="stop-color:#203B8F"/>
		</linearGradient>
		<path fill="url(#SVGID_12_)" d="M80.294,1.564l-6.413,23.486L67.457,1.564h-18.13l-3.744,26.718
			c5.053-0.642,10.196-1.246,15.425-1.816l0.454-5.122l1.432,4.923c7.377-0.789,14.908-1.503,22.6-2.133l0.809-2.79l0.238,2.705
			c4.905-0.395,9.872-0.76,14.887-1.09L98.439,1.564H80.294z"/>
		<linearGradient id="SVGID_13_" gradientUnits="userSpaceOnUse" x1="205.3711" y1="0.3271" x2="205.3711" y2="21.8486">
			<stop  offset="0" style="stop-color:#009EE2"/>
			<stop  offset="0.1456" style="stop-color:#0886CE"/>
			<stop  offset="0.3812" style="stop-color:#1265B3"/>
			<stop  offset="0.6077" style="stop-color:#1A4E9F"/>
			<stop  offset="0.8191" style="stop-color:#1E4093"/>
			<stop  offset="1" style="stop-color:#203B8F"/>
		</linearGradient>
		<path fill="url(#SVGID_13_)" d="M222.788,6.511c-2.081-1.964-4.599-3.489-7.542-4.567c-2.941-1.078-6.231-1.616-9.875-1.616
			s-6.937,0.538-9.891,1.616c-2.952,1.078-5.479,2.607-7.576,4.585c-2.103,1.983-3.695,4.308-4.793,6.977
			c-0.911,2.209-1.424,4.577-1.578,7.084c5.305,0.028,10.574,0.095,15.805,0.194c0.14-1.157,0.447-2.206,0.944-3.153
			c0.692-1.31,1.652-2.319,2.887-3.045c1.229-0.715,2.631-1.076,4.202-1.076c2.366,0,4.303,0.784,5.807,2.359
			c1.315,1.368,2.018,3.168,2.185,5.339c5.333,0.177,10.61,0.389,15.846,0.642c-0.038-2.984-0.578-5.776-1.644-8.368
			C226.463,10.798,224.873,8.474,222.788,6.511z"/>
		<linearGradient id="SVGID_14_" gradientUnits="userSpaceOnUse" x1="333.2744" y1="0.3271" x2="333.2744" y2="35.2505">
			<stop  offset="0" style="stop-color:#009EE2"/>
			<stop  offset="0.1456" style="stop-color:#0886CE"/>
			<stop  offset="0.3812" style="stop-color:#1265B3"/>
			<stop  offset="0.6077" style="stop-color:#1A4E9F"/>
			<stop  offset="0.8191" style="stop-color:#1E4093"/>
			<stop  offset="1" style="stop-color:#203B8F"/>
		</linearGradient>
		<path fill="url(#SVGID_14_)" d="M348.485,23.099c-1.011-1.62-2.399-2.908-4.156-3.866c-1.762-0.958-3.879-1.765-6.35-2.416
			c-0.076-0.02-0.63-0.15-1.67-0.396c-1.032-0.245-1.813-0.472-2.339-0.692c-0.526-0.216-0.949-0.509-1.273-0.874
			c-0.321-0.371-0.48-0.836-0.48-1.401c0-1.609,1.274-2.421,3.824-2.421c1.265,0,2.458,0.205,3.566,0.618
			c1.121,0.403,2.462,1.027,4.021,1.858l4.773-9.054c-1.4-0.932-2.921-1.703-4.564-2.311c-1.639-0.607-3.359-1.06-5.136-1.366
			c-1.785-0.298-3.536-0.451-5.25-0.451c-3.485,0-6.511,0.616-9.059,1.849c-2.557,1.234-4.505,2.934-5.843,5.107
			c-1.338,2.18-2.002,4.644-2.002,7.403c0,2.616,0.64,4.75,1.917,6.4c1.277,1.647,2.769,2.866,4.475,3.644
			c1.696,0.782,3.669,1.48,5.911,2.094c1.785,0.455,3.142,0.924,4.076,1.404c0.931,0.48,1.407,1.246,1.407,2.303
			c0,0.906-0.405,1.547-1.175,1.927c5.327,0.889,10.525,1.818,15.578,2.792c0.828-1.774,1.262-3.79,1.262-6.068
			C350,26.744,349.493,24.721,348.485,23.099z"/>
		<linearGradient id="SVGID_15_" gradientUnits="userSpaceOnUse" x1="295.7949" y1="1.5645" x2="295.7949" y2="29.54">
			<stop  offset="0" style="stop-color:#009EE2"/>
			<stop  offset="0.1456" style="stop-color:#0886CE"/>
			<stop  offset="0.3812" style="stop-color:#1265B3"/>
			<stop  offset="0.6077" style="stop-color:#1A4E9F"/>
			<stop  offset="0.8191" style="stop-color:#1E4093"/>
			<stop  offset="1" style="stop-color:#203B8F"/>
		</linearGradient>
		<path fill="url(#SVGID_15_)" d="M285.986,1.564l-8.436,23.713c12.637,1.211,24.825,2.639,36.489,4.263l-9.913-27.976H285.986z
			 M292.168,26.462l2.889-10.479l2.831,10.479H292.168z"/>
		<linearGradient id="SVGID_16_" gradientUnits="userSpaceOnUse" x1="251.4199" y1="1.5645" x2="251.4199" y2="24.8037">
			<stop  offset="0" style="stop-color:#009EE2"/>
			<stop  offset="0.1456" style="stop-color:#0886CE"/>
			<stop  offset="0.3812" style="stop-color:#1265B3"/>
			<stop  offset="0.6077" style="stop-color:#1A4E9F"/>
			<stop  offset="0.8191" style="stop-color:#1E4093"/>
			<stop  offset="1" style="stop-color:#203B8F"/>
		</linearGradient>
		<path fill="url(#SVGID_16_)" d="M256.775,20.926L245.88,1.564h-15.484v20.337c14.448,0.708,28.496,1.678,42.049,2.902V1.564
			h-15.669V20.926z"/>
	</g>
	<g>
		<g>
			<linearGradient id="SVGID_17_" gradientUnits="userSpaceOnUse" x1="278.1436" y1="55.501" x2="349.9795" y2="55.501">
				<stop  offset="0.1411" style="stop-color:#93C01F"/>
				<stop  offset="0.3067" style="stop-color:#69B428"/>
				<stop  offset="0.6781" style="stop-color:#019540"/>
				<stop  offset="0.681" style="stop-color:#009540"/>
			</linearGradient>
			<path fill="url(#SVGID_17_)" d="M317.5,51.791c-18.896-6.463-32.773-0.438-39.356,3.717c0.028,0.011,0.055,0.021,0.082,0.034
				c4.431-2.263,12.316-4.159,23.966,0.613c0,0,34.34,14.858,47.788-2.606C349.586,54.019,343.466,60.67,317.5,51.791z"/>
			<linearGradient id="SVGID_18_" gradientUnits="userSpaceOnUse" x1="349.9795" y1="53.5352" x2="350" y2="53.5352">
				<stop  offset="0.1411" style="stop-color:#93C01F"/>
				<stop  offset="0.3067" style="stop-color:#69B428"/>
				<stop  offset="0.6781" style="stop-color:#019540"/>
				<stop  offset="0.681" style="stop-color:#009540"/>
			</linearGradient>
			<path fill="url(#SVGID_18_)" d="M349.979,53.549c0.015-0.018,0.021-0.026,0.021-0.026
				C349.994,53.53,349.986,53.539,349.979,53.549z"/>
		</g>
		<g>
			<linearGradient id="SVGID_19_" gradientUnits="userSpaceOnUse" x1="344.5527" y1="61.124" x2="265.5479" y2="61.124">
				<stop  offset="0.2147" style="stop-color:#93C01F"/>
				<stop  offset="0.3728" style="stop-color:#69B428"/>
				<stop  offset="0.7274" style="stop-color:#019540"/>
				<stop  offset="0.7301" style="stop-color:#009540"/>
			</linearGradient>
			<path fill="url(#SVGID_19_)" d="M308.834,57.415c-20.783-6.464-36.047-0.438-43.286,3.717c0.032,0.011,0.06,0.022,0.091,0.033
				c4.873-2.261,13.545-4.157,26.355,0.614c0,0,37.77,14.857,52.559-2.607C344.121,59.643,337.389,66.293,308.834,57.415z"/>
			<linearGradient id="SVGID_20_" gradientUnits="userSpaceOnUse" x1="344.5781" y1="59.1592" x2="344.5527" y2="59.1592">
				<stop  offset="0.2147" style="stop-color:#93C01F"/>
				<stop  offset="0.3728" style="stop-color:#69B428"/>
				<stop  offset="0.7274" style="stop-color:#019540"/>
				<stop  offset="0.7301" style="stop-color:#009540"/>
			</linearGradient>
			<path fill="url(#SVGID_20_)" d="M344.553,59.172c0.017-0.018,0.025-0.026,0.025-0.026
				C344.569,59.154,344.562,59.163,344.553,59.172z"/>
		</g>
		
			<linearGradient id="SVGID_21_" gradientUnits="userSpaceOnUse" x1="-51.0459" y1="-36.4375" x2="-27.8096" y2="-36.4375" gradientTransform="matrix(1.2354 0.1128 -0.0896 0.9809 325.6763 101.3851)">
			<stop  offset="0" style="stop-color:#009EE2"/>
			<stop  offset="0.4628" style="stop-color:#0E72BD"/>
			<stop  offset="1" style="stop-color:#203B8F"/>
		</linearGradient>
		<path fill="url(#SVGID_21_)" d="M294.521,63.204c0,0-13.935-6.503-26.805-2.487l-1.985,0.787
			C265.731,61.504,277.472,59.728,294.521,63.204z"/>
		<linearGradient id="SVGID_22_" gradientUnits="userSpaceOnUse" x1="333.626" y1="54.4395" x2="349.8516" y2="54.4395">
			<stop  offset="0" style="stop-color:#009EE2"/>
			<stop  offset="0.4628" style="stop-color:#0E72BD"/>
			<stop  offset="1" style="stop-color:#203B8F"/>
		</linearGradient>
		<path fill="url(#SVGID_22_)" d="M333.626,55.621c0,0,12.29,1.794,16.226-2.715C349.852,52.906,343.336,56.057,333.626,55.621z"/>
		<linearGradient id="SVGID_23_" gradientUnits="userSpaceOnUse" x1="316.3965" y1="62.3018" x2="316.3965" y2="55.2178">
			<stop  offset="0" style="stop-color:#A32423"/>
			<stop  offset="0.7038" style="stop-color:#CE0F18"/>
			<stop  offset="1" style="stop-color:#E20613"/>
		</linearGradient>
		<path fill="url(#SVGID_23_)" d="M299.678,55.218c0,0,4.597,0.576,12.475,3.202c7.877,2.626,17.438,3.747,20.964,3.46
			c0,0-9.164,2.401-27.524-4.259L299.678,55.218z"/>
		<linearGradient id="SVGID_24_" gradientUnits="userSpaceOnUse" x1="345.3252" y1="55.623" x2="280.8926" y2="55.6231">
			<stop  offset="0.1411" style="stop-color:#93C01F"/>
			<stop  offset="0.1613" style="stop-color:#8CBE21"/>
			<stop  offset="0.2964" style="stop-color:#61B22A"/>
			<stop  offset="0.434" style="stop-color:#3EA732"/>
			<stop  offset="0.5724" style="stop-color:#239F38"/>
			<stop  offset="0.7119" style="stop-color:#0F9A3D"/>
			<stop  offset="0.8535" style="stop-color:#04963F"/>
			<stop  offset="1" style="stop-color:#009540"/>
		</linearGradient>
		<path fill="url(#SVGID_24_)" d="M339.567,58.376c-1.04,0.105-2.105,0.18-3.199,0.216c-12.361,0.412-22.04-2.986-26.69-4.623
			c0,0-1.246-0.435-1.511-0.527c-3.88-1.571-9.815-2.818-16.26-2.393l-0.347,0.051c-4.044,0.61-7.718,1.693-10.668,3.035
			c1.45-0.471,3.038-0.842,4.72-1.097c0.853-0.128,1.728-0.225,2.621-0.291c10.116-0.729,18,2.218,21.787,3.632l0.361,0.136
			c0,0,0.305,0.114,0.403,0.15c4.684,1.998,12.544,3.834,21.113,3.595l0.423-0.04c4.938-0.505,9.414-1.518,13.004-2.836
			C343.559,57.83,341.622,58.169,339.567,58.376z"/>
		<linearGradient id="SVGID_25_" gradientUnits="userSpaceOnUse" x1="339.7969" y1="60.7295" x2="270.6631" y2="60.7295">
			<stop  offset="0" style="stop-color:#93C01F"/>
			<stop  offset="0.09" style="stop-color:#73B726"/>
			<stop  offset="0.2086" style="stop-color:#50AC2E"/>
			<stop  offset="0.3346" style="stop-color:#33A435"/>
			<stop  offset="0.4681" style="stop-color:#1C9D3A"/>
			<stop  offset="0.6127" style="stop-color:#0C993D"/>
			<stop  offset="0.7764" style="stop-color:#03963F"/>
			<stop  offset="1" style="stop-color:#009540"/>
		</linearGradient>
		<path fill="url(#SVGID_25_)" d="M333.62,63.561c-1.116,0.107-2.26,0.183-3.433,0.221c-13.263,0.423-23.648-3.07-28.637-4.75
			c0,0-1.338-0.448-1.623-0.543c-4.162-1.614-10.53-2.896-17.447-2.458l-0.372,0.05c-4.339,0.627-8.28,1.741-11.445,3.12
			c1.557-0.483,3.261-0.865,5.063-1.126c0.915-0.132,1.853-0.233,2.813-0.3c10.855-0.75,19.313,2.278,23.378,3.733l0.391,0.138
			c0,0,0.326,0.118,0.431,0.154c5.025,2.056,13.458,3.941,22.652,3.695l0.455-0.042c5.297-0.518,10.101-1.56,13.951-2.913
			C337.9,62.999,335.823,63.347,333.62,63.561z"/>
		<linearGradient id="SVGID_26_" gradientUnits="userSpaceOnUse" x1="285.2861" y1="52.6318" x2="285.2861" y2="52.6318">
			<stop  offset="0.1411" style="stop-color:#93C01F"/>
			<stop  offset="0.1613" style="stop-color:#8CBE21"/>
			<stop  offset="0.2964" style="stop-color:#61B22A"/>
			<stop  offset="0.434" style="stop-color:#3EA732"/>
			<stop  offset="0.5724" style="stop-color:#239F38"/>
			<stop  offset="0.7119" style="stop-color:#0F9A3D"/>
			<stop  offset="0.8535" style="stop-color:#04963F"/>
			<stop  offset="1" style="stop-color:#009540"/>
		</linearGradient>
		<path fill="url(#SVGID_26_)" d="M285.286,52.632"/>
		<linearGradient id="SVGID_27_" gradientUnits="userSpaceOnUse" x1="342.6914" y1="57.3057" x2="315.4648" y2="57.3057">
			<stop  offset="0" style="stop-color:#93C01F"/>
			<stop  offset="0.0132" style="stop-color:#9CC531"/>
			<stop  offset="0.0521" style="stop-color:#B3D361"/>
			<stop  offset="0.0933" style="stop-color:#C7DE8B"/>
			<stop  offset="0.1361" style="stop-color:#D8E9AF"/>
			<stop  offset="0.1809" style="stop-color:#E7F1CC"/>
			<stop  offset="0.2283" style="stop-color:#F1F7E3"/>
			<stop  offset="0.2797" style="stop-color:#F9FCF3"/>
			<stop  offset="0.3378" style="stop-color:#FEFEFC"/>
			<stop  offset="0.4172" style="stop-color:#FFFFFF"/>
			<stop  offset="1" style="stop-color:#009540"/>
		</linearGradient>
		<path fill="url(#SVGID_27_)" d="M315.465,55.934c0,0,14.363,4.419,27.227,2.044C342.691,57.978,332.915,59.928,315.465,55.934z"/>
		
			<linearGradient id="SVGID_28_" gradientUnits="userSpaceOnUse" x1="304.2705" y1="-373.0703" x2="277.042" y2="-373.0703" gradientTransform="matrix(0.775 0.0323 -0.0313 0.7518 79.4628 335.538)">
			<stop  offset="0" style="stop-color:#93C01F"/>
			<stop  offset="0.0132" style="stop-color:#9CC531"/>
			<stop  offset="0.0521" style="stop-color:#B3D361"/>
			<stop  offset="0.0933" style="stop-color:#C7DE8B"/>
			<stop  offset="0.1361" style="stop-color:#D8E9AF"/>
			<stop  offset="0.1809" style="stop-color:#E7F1CC"/>
			<stop  offset="0.2283" style="stop-color:#F1F7E3"/>
			<stop  offset="0.2797" style="stop-color:#F9FCF3"/>
			<stop  offset="0.3378" style="stop-color:#FEFEFC"/>
			<stop  offset="0.4172" style="stop-color:#FFFFFF"/>
			<stop  offset="1" style="stop-color:#009540"/>
		</linearGradient>
		<path fill="url(#SVGID_28_)" d="M305.891,62.979c0,0,10.993,3.785,21.037,2.417C326.928,65.396,319.291,66.546,305.891,62.979z"/>
		<linearGradient id="SVGID_29_" gradientUnits="userSpaceOnUse" x1="323.0645" y1="61.8838" x2="323.0645" y2="58.6865">
			<stop  offset="0" style="stop-color:#93C01F"/>
			<stop  offset="0.0132" style="stop-color:#9CC531"/>
			<stop  offset="0.0521" style="stop-color:#B3D361"/>
			<stop  offset="0.0933" style="stop-color:#C7DE8B"/>
			<stop  offset="0.1361" style="stop-color:#D8E9AF"/>
			<stop  offset="0.1809" style="stop-color:#E7F1CC"/>
			<stop  offset="0.2283" style="stop-color:#F1F7E3"/>
			<stop  offset="0.2797" style="stop-color:#F9FCF3"/>
			<stop  offset="0.3378" style="stop-color:#FEFEFC"/>
			<stop  offset="0.4172" style="stop-color:#FFFFFF"/>
			<stop  offset="1" style="stop-color:#009540"/>
		</linearGradient>
		<path fill="url(#SVGID_29_)" d="M313.012,58.687c0,0,10.008,2.72,20.104,3.193C333.116,61.88,323.399,62.134,313.012,58.687z"/>
	</g>
	<g>
		<linearGradient id="SVGID_30_" gradientUnits="userSpaceOnUse" x1="175.0254" y1="60.7852" x2="189.1328" y2="60.7852">
			<stop  offset="0.1411" style="stop-color:#93C01F"/>
			<stop  offset="0.3067" style="stop-color:#69B428"/>
			<stop  offset="0.6781" style="stop-color:#019540"/>
			<stop  offset="0.681" style="stop-color:#009540"/>
		</linearGradient>
		<path fill="url(#SVGID_30_)" d="M178.522,54.831c1.127-0.621,2.313-0.933,3.558-0.933c0.152,0,0.307,0.004,0.467,0.01
			c0.159,0.008,0.313,0.024,0.467,0.053c0.525,0.068,1.048,0.192,1.566,0.372c0.519,0.181,1.006,0.414,1.462,0.706
			c0.899,0.594,1.618,1.376,2.158,2.345c0.538,0.969,0.843,1.971,0.913,3.007c0.013,0.083,0.02,0.166,0.02,0.25
			c0,0.082,0,0.166,0,0.249c0,0.138-0.004,0.279-0.011,0.425c-0.007,0.145-0.023,0.287-0.051,0.426
			c-0.028,0.29-0.079,0.577-0.155,0.861c-0.077,0.283-0.171,0.563-0.281,0.839c-0.565,1.343-1.466,2.383-2.697,3.123
			c-1.23,0.74-2.537,1.108-3.919,1.108c-0.07,0-0.14,0-0.209,0c-0.068,0-0.138-0.007-0.206-0.02
			c-0.498-0.027-0.986-0.104-1.464-0.229c-0.477-0.123-0.938-0.296-1.38-0.517c-1.175-0.624-2.091-1.491-2.748-2.604
			c-0.658-1.113-0.986-2.285-0.986-3.518c0-0.192,0.011-0.389,0.032-0.591c0.021-0.199,0.044-0.403,0.073-0.612
			c0.068-0.345,0.167-0.694,0.29-1.047c0.125-0.353,0.27-0.688,0.437-1.006C176.506,56.353,177.395,55.455,178.522,54.831z
			 M186.146,61.679c0.041-0.277,0.062-0.562,0.062-0.852c0-0.043,0-0.079,0-0.114c0-0.034,0-0.072,0-0.113
			c-0.041-0.748-0.245-1.466-0.611-2.158c-0.367-0.691-0.875-1.23-1.525-1.618c-0.193-0.11-0.391-0.197-0.592-0.259
			c-0.2-0.063-0.403-0.115-0.611-0.156c-0.125-0.014-0.249-0.027-0.373-0.042c-0.125-0.014-0.25-0.021-0.375-0.021
			c-0.842,0-1.62,0.249-2.333,0.747s-1.227,1.169-1.545,2.013c-0.055,0.165-0.104,0.345-0.146,0.539s-0.076,0.388-0.103,0.581
			c-0.015,0.083-0.025,0.172-0.032,0.271c-0.008,0.096-0.011,0.193-0.011,0.288c0,0.029,0,0.057,0,0.083c0,0.029,0,0.057,0,0.084
			c0.028,0.898,0.291,1.743,0.789,2.531c0.497,0.789,1.189,1.313,2.073,1.577c0.097,0.028,0.197,0.051,0.302,0.072
			c0.104,0.021,0.21,0.045,0.321,0.072c0.096,0.015,0.197,0.027,0.3,0.042c0.104,0.014,0.204,0.021,0.303,0.021
			c0.856,0,1.642-0.246,2.354-0.738c0.712-0.49,1.22-1.163,1.524-2.021C186.028,62.23,186.104,61.954,186.146,61.679z"/>
		<linearGradient id="SVGID_31_" gradientUnits="userSpaceOnUse" x1="194.1533" y1="60.7852" x2="206.6416" y2="60.7852">
			<stop  offset="0.1411" style="stop-color:#93C01F"/>
			<stop  offset="0.3067" style="stop-color:#69B428"/>
			<stop  offset="0.6781" style="stop-color:#019540"/>
			<stop  offset="0.681" style="stop-color:#009540"/>
		</linearGradient>
		<path fill="url(#SVGID_31_)" d="M194.153,54.178h2.926l5.85,7.677c0.055,0.07,0.107,0.145,0.155,0.229
			c0.049,0.082,0.101,0.173,0.156,0.269c0.069,0.125,0.137,0.25,0.207,0.374c0.069,0.124,0.131,0.249,0.188,0.374
			c0.097,0.194,0.184,0.381,0.258,0.561c0.077,0.18,0.149,0.346,0.219,0.497c-0.056-0.416-0.096-0.84-0.125-1.277
			c-0.027-0.434-0.041-0.866-0.041-1.296v-7.406h2.696v13.216h-2.8l-5.975-7.842c-0.042-0.058-0.086-0.118-0.135-0.188
			c-0.049-0.067-0.095-0.137-0.135-0.207c-0.083-0.138-0.166-0.286-0.25-0.446c-0.082-0.158-0.166-0.321-0.248-0.487
			c-0.083-0.179-0.164-0.354-0.238-0.528c-0.076-0.175-0.149-0.336-0.22-0.488c0.029,0.223,0.053,0.444,0.074,0.664
			c0.021,0.222,0.045,0.442,0.072,0.664c0.015,0.222,0.027,0.443,0.041,0.664c0.014,0.222,0.021,0.442,0.021,0.664v7.531h-2.697
			V54.178z"/>
		<linearGradient id="SVGID_32_" gradientUnits="userSpaceOnUse" x1="233.2168" y1="60.7852" x2="245.7051" y2="60.7852">
			<stop  offset="0.1411" style="stop-color:#93C01F"/>
			<stop  offset="0.3067" style="stop-color:#69B428"/>
			<stop  offset="0.6781" style="stop-color:#019540"/>
			<stop  offset="0.681" style="stop-color:#009540"/>
		</linearGradient>
		<path fill="url(#SVGID_32_)" d="M233.217,54.178h2.926l5.851,7.677c0.055,0.07,0.106,0.145,0.155,0.229
			c0.048,0.082,0.1,0.173,0.155,0.269c0.07,0.125,0.138,0.25,0.207,0.374c0.07,0.124,0.131,0.249,0.187,0.374
			c0.098,0.194,0.184,0.381,0.259,0.561c0.077,0.18,0.149,0.346,0.219,0.497c-0.055-0.416-0.098-0.84-0.124-1.277
			c-0.028-0.434-0.042-0.866-0.042-1.296v-7.406h2.696v13.216h-2.799l-5.976-7.842c-0.042-0.058-0.086-0.118-0.135-0.188
			c-0.049-0.067-0.094-0.137-0.135-0.207c-0.083-0.138-0.166-0.286-0.249-0.446c-0.084-0.158-0.167-0.321-0.249-0.487
			c-0.083-0.179-0.163-0.354-0.239-0.528c-0.076-0.175-0.147-0.336-0.217-0.488c0.028,0.223,0.052,0.444,0.072,0.664
			c0.021,0.222,0.045,0.442,0.072,0.664c0.015,0.222,0.027,0.443,0.043,0.664c0.013,0.222,0.019,0.442,0.019,0.664v7.531h-2.696
			V54.178z"/>
		<linearGradient id="SVGID_33_" gradientUnits="userSpaceOnUse" x1="250.7266" y1="60.7852" x2="258.4844" y2="60.7852">
			<stop  offset="0.1411" style="stop-color:#93C01F"/>
			<stop  offset="0.3067" style="stop-color:#69B428"/>
			<stop  offset="0.6781" style="stop-color:#019540"/>
			<stop  offset="0.681" style="stop-color:#009540"/>
		</linearGradient>
		<path fill="url(#SVGID_33_)" d="M250.727,54.178h7.758v2.386h-4.937v2.696h4.937v2.408h-4.937v3.299h4.937v2.427h-7.758V54.178z"
			/>
		<linearGradient id="SVGID_34_" gradientUnits="userSpaceOnUse" x1="211.6621" y1="60.7852" x2="219.4209" y2="60.7852">
			<stop  offset="0.1411" style="stop-color:#93C01F"/>
			<stop  offset="0.3067" style="stop-color:#69B428"/>
			<stop  offset="0.6781" style="stop-color:#019540"/>
			<stop  offset="0.681" style="stop-color:#009540"/>
		</linearGradient>
		<path fill="url(#SVGID_34_)" d="M211.662,54.178h2.822v10.789h4.937v2.427h-7.759V54.178z"/>
		<linearGradient id="SVGID_35_" gradientUnits="userSpaceOnUse" x1="224.4414" y1="60.7852" x2="227.2627" y2="60.7852">
			<stop  offset="0.1411" style="stop-color:#93C01F"/>
			<stop  offset="0.3067" style="stop-color:#69B428"/>
			<stop  offset="0.6781" style="stop-color:#019540"/>
			<stop  offset="0.681" style="stop-color:#009540"/>
		</linearGradient>
		<polygon fill="url(#SVGID_35_)" points="224.441,54.178 224.441,67.394 227.249,67.394 227.263,54.178 		"/>
	</g>
</g>
</svg>
